<?xml version="1.0" encoding="UTF-8"?>
<svg width="2296px" height="72px" viewBox="0 0 2296 72" version="1.1" xmlns="http://www.w3.org/2000/svg" xmlns:xlink="http://www.w3.org/1999/xlink">
    <title>标题框</title>
    <defs>
        <linearGradient x1="0%" y1="49.9972%" x2="100%" y2="49.9972%" id="linearGradient-1">
            <stop stop-color="#224EF8" stop-opacity="0.224109143" offset="0%"></stop>
            <stop stop-color="#1842C8" offset="47.0119236%"></stop>
            <stop stop-color="#1E5EFF" stop-opacity="0.559093982" offset="100%"></stop>
        </linearGradient>
        <linearGradient x1="102.7126%" y1="50.0005%" x2="0%" y2="50.0005%" id="linearGradient-2">
            <stop stop-color="#237FFD" offset="0%"></stop>
            <stop stop-color="#237EFC" offset="100%"></stop>
        </linearGradient>
        <linearGradient x1="102.7126%" y1="50.0005%" x2="0%" y2="50.0005%" id="linearGradient-3">
            <stop stop-color="#1F4FD0" offset="0%"></stop>
            <stop stop-color="#2381FF" offset="100%"></stop>
        </linearGradient>
    </defs>
    <g id="2024-12-18" stroke="none" stroke-width="1" fill="none" fill-rule="evenodd">
        <g id="1-旅游大屏备份" transform="translate(-32.000000, -96.000000)">
            <g id="标题框" transform="translate(32.000000, 96.000000)">
                <path d="M2296,0 L2296,72 L0,72 L0,0 L2296,0 Z" id="路径" fill="url(#linearGradient-1)"></path>
                <path d="M1748.15967,24.2486454 C1745.22319,24.7876454 1744.14033,26.0293773 1745.73721,27.0215742 L1774.47214,44.9279409 L1774.7154,45.0711918 C1776.41436,45.9599616 1779.87441,46.2715323 1782.67199,45.7567499 C1785.60842,45.2177171 1786.70146,43.9760384 1785.10457,42.9838211 L1756.36964,25.0774543 L1756.12639,24.9342034 C1754.4274,24.0454034 1750.95728,23.7338455 1748.15967,24.2486454 Z M1783.70442,24.2486454 C1780.76798,24.7876454 1779.68507,26.0293773 1781.28196,27.0215742 L1810.01689,44.9279409 L1810.26015,45.0711918 C1811.95911,45.9599616 1815.41916,46.2715323 1818.21673,45.7567499 C1821.15317,45.2177171 1822.24621,43.9760384 1820.64932,42.9838211 L1791.91439,25.0774543 L1791.67114,24.9342034 C1789.97218,24.0454034 1786.50199,23.7338455 1783.70442,24.2486454 Z M1820.00509,24.2486454 C1817.06866,24.7876454 1815.98575,26.0293773 1817.58264,27.0215742 L1846.31757,44.9279409 L1846.56072,45.0711918 C1848.25948,45.9599616 1851.71984,46.2715323 1854.51731,45.7567499 C1857.45364,45.2177171 1858.54729,43.9760384 1856.9499,42.9838211 L1828.21507,25.0774543 L1827.97181,24.9342034 C1826.27285,24.0454034 1822.80267,23.7338455 1820.00509,24.2486454 Z M1856.30627,24.2486454 C1853.36994,24.7876454 1852.28643,26.0293773 1853.88382,27.0215742 L1882.61875,44.9279409 L1882.86201,45.0711918 C1884.56077,45.9599616 1888.02112,46.2715323 1890.81859,45.7567499 C1893.75493,45.2177171 1894.84757,43.9760384 1893.25118,42.9838211 L1864.51625,25.0774543 L1864.27299,24.9342034 C1862.57424,24.0454034 1859.10375,23.7338455 1856.30627,24.2486454 Z M1892.60756,24.2486454 C1889.67122,24.7876454 1888.58872,26.0293773 1890.18511,27.0215742 L1918.92003,44.9279409 L1919.16329,45.0711918 C1920.86205,45.9599616 1924.3224,46.2715323 1927.11988,45.7567499 C1930.05621,45.2177171 1931.14986,43.9760384 1929.55246,42.9838211 L1900.81754,25.0774543 L1900.57428,24.9342034 C1898.87552,24.0454034 1895.40503,23.7338455 1892.60756,24.2486454 Z M1928.90783,24.2486454 C1925.97149,24.7876454 1924.88899,26.0293773 1926.48538,27.0215742 L1955.22031,44.9279409 L1955.46356,45.0711918 C1957.16232,45.9599616 1960.62267,46.2715323 1963.42015,45.7567499 C1966.35648,45.2177171 1967.45013,43.9760384 1965.85274,42.9838211 L1937.11781,25.0774543 L1936.87455,24.9342034 C1935.17579,24.0454034 1931.7053,23.7338455 1928.90783,24.2486454 Z M1965.20911,24.2486454 C1962.27278,24.7876454 1961.19028,26.0293773 1962.78666,27.0215742 L1991.52159,44.9279409 L1991.76485,45.0711918 C1993.4636,45.9599616 1996.92396,46.2715323 1999.72143,45.7567499 C2002.65777,45.2177171 2003.75142,43.9760384 2002.15402,42.9838211 L1973.41909,25.0774543 L1973.17583,24.9342034 C1971.47708,24.0454034 1968.00659,23.7338455 1965.20911,24.2486454 Z M2001.51141,24.2486454 C1998.57508,24.7876454 1997.49258,26.0293773 1999.08896,27.0215742 L2027.82389,44.9279409 L2028.06816,45.0711918 C2029.76692,45.9599616 2033.22626,46.2715323 2036.02373,45.7567499 C2038.96108,45.2177171 2040.05372,43.9760384 2038.45733,42.9838211 L2009.72139,25.0774543 L2009.47915,24.9342034 C2007.77938,24.0454034 2004.3099,23.7338455 2001.51141,24.2486454 Z M2037.81168,24.2486454 C2034.87433,24.7876454 2033.79183,26.0293773 2035.38923,27.0215742 L2064.12416,44.9279409 L2064.36742,45.0711918 C2066.06617,45.9599616 2069.52551,46.2715323 2072.324,45.7567499 C2075.26034,45.2177171 2076.35297,43.9760384 2074.75659,42.9838211 L2046.02166,25.0774543 L2045.7784,24.9342034 C2044.07863,24.0454034 2040.60916,23.7338455 2037.81168,24.2486454 Z M2074.11297,24.2486454 C2071.17663,24.7876454 2070.09413,26.0293773 2071.69052,27.0215742 L2100.42544,44.9279409 L2100.6687,45.0711918 C2102.36847,45.9599616 2105.82781,46.2715323 2108.62529,45.7567499 C2111.56263,45.2177171 2112.65527,43.9760384 2111.05787,42.9838211 L2082.32295,25.0774543 L2082.07969,24.9342034 C2080.38093,24.0454034 2076.91145,23.7338455 2074.11297,24.2486454 Z M2110.41526,24.2486454 C2107.47893,24.7876454 2106.39643,26.0293773 2107.99281,27.0215742 L2136.72774,44.9279409 L2136.971,45.0711918 C2138.66976,45.9599616 2142.13011,46.2715323 2144.92758,45.7567499 C2147.86392,45.2177171 2148.95757,43.9760384 2147.36017,42.9838211 L2118.62524,25.0774543 L2118.38198,24.9342034 C2116.68323,24.0454034 2113.21274,23.7338455 2110.41526,24.2486454 Z M2146.71553,24.2486454 C2143.7792,24.7876454 2142.6967,26.0293773 2144.29308,27.0215742 L2173.02801,44.9279409 L2173.27127,45.0711918 C2174.97003,45.9599616 2178.43038,46.2715323 2181.22785,45.7567499 C2184.16419,45.2177171 2185.25784,43.9760384 2183.66044,42.9838211 L2154.92551,25.0774543 L2154.68226,24.9342034 C2152.9835,24.0454034 2149.51301,23.7338455 2146.71553,24.2486454 Z M2180.59538,27.0215742 C2178.999,26.0293773 2180.0815,24.7876454 2183.01783,24.2486454 C2185.81531,23.7338455 2189.2858,24.0454034 2190.98455,24.9342034 L2191.22781,25.0774543 L2219.96274,42.9838211 C2221.55912,43.9760384 2220.46649,45.2177171 2217.53015,45.7567499 C2214.73268,46.2715323 2211.27232,45.9599616 2209.57357,45.0711918 L2209.33031,44.9279409 L2180.59538,27.0215742 Z M2216.89667,27.0215742 C2215.29927,26.0293773 2216.38278,24.7876454 2219.31912,24.2486454 C2222.11659,23.7338455 2225.58607,24.0454034 2227.28584,24.9342034 L2227.5291,25.0774543 L2256.26402,42.9838211 C2257.86041,43.9760384 2256.76777,45.2177171 2253.83144,45.7567499 C2251.03396,46.2715323 2247.57361,45.9599616 2245.87485,45.0711918 L2245.63159,44.9279409 L2216.89667,27.0215742 Z" id="形状结合" fill="url(#linearGradient-2)" transform="translate(2001.000000, 35.000000) scale(-1, 1) translate(-2001.000000, -35.000000) "></path>
                <path d="M55.6797606,24.2486454 C58.616232,24.7876454 59.6990958,26.0293773 58.1022112,27.0215742 L29.3672843,44.9279409 L29.1240257,45.0711918 C27.4250668,45.9599616 23.9650167,46.2715323 21.167441,45.7567499 C18.2310051,45.2177171 17.1379629,43.9760384 18.7348545,42.9838211 L47.4697815,25.0774543 L47.7130401,24.9342034 C49.4120294,24.0454034 52.8821545,23.7338455 55.6797606,24.2486454 Z M91.2258322,24.2486454 C94.162268,24.7876454 95.2451744,26.0293773 93.6482828,27.0215742 L64.9133558,44.9279409 L64.6700972,45.0711918 C62.9711383,45.9599616 59.5110882,46.2715323 56.7135125,45.7567499 C53.7770766,45.2177171 52.6840345,43.9760384 54.2809261,42.9838211 L83.015853,25.0774543 L83.2591117,24.9342034 C84.9580706,24.0454034 88.4282564,23.7338455 91.2258322,24.2486454 Z M127.524439,24.2486454 C130.460875,24.7876454 131.543781,26.0293773 129.94689,27.0215742 L101.211963,44.9279409 L100.968603,45.0711918 C99.2698464,45.9599616 95.8094922,46.2715323 93.0120179,45.7567499 C90.0756834,45.2177171 88.9830466,43.9760384 90.5794315,42.9838211 L119.31446,25.0774543 L119.557718,24.9342034 C121.256677,24.0454034 124.726863,23.7338455 127.524439,24.2486454 Z M163.826981,24.2486454 C166.764329,24.7876454 167.84683,26.0293773 166.249431,27.0215742 L137.514504,44.9279409 L137.272259,45.0711918 C135.57249,45.9599616 132.113149,46.2715323 129.315675,45.7567499 C126.378327,45.2177171 125.28569,43.9760384 126.883088,42.9838211 L155.617002,25.0774543 L155.861274,24.9342034 C157.56003,24.0454034 161.029506,23.7338455 163.826981,24.2486454 Z M200.127817,24.2486454 C203.064151,24.7876454 204.147666,26.0293773 202.550267,27.0215742 L173.815341,44.9279409 L173.572082,45.0711918 C171.873326,45.9599616 168.412972,46.2715323 165.615497,45.7567499 C162.679163,45.2177171 161.586526,43.9760384 163.182911,42.9838211 L191.917838,25.0774543 L192.161096,24.9342034 C193.860866,24.0454034 197.330342,23.7338455 200.127817,24.2486454 Z M236.429999,24.2486454 C239.366334,24.7876454 240.448835,26.0293773 238.85245,27.0215742 L210.117523,44.9279409 L209.874264,45.0711918 C208.175508,45.9599616 204.715154,46.2715323 201.91768,45.7567499 C198.981345,45.2177171 197.887695,43.9760384 199.485093,42.9838211 L228.22002,25.0774543 L228.463279,24.9342034 C230.162035,24.0454034 233.632525,23.7338455 236.429999,24.2486454 Z M272.731194,24.2486454 C275.668542,24.7876454 276.751043,26.0293773 275.153645,27.0215742 L246.418718,44.9279409 L246.175459,45.0711918 C244.476703,45.9599616 241.017362,46.2715323 238.218874,45.7567499 C235.28254,45.2177171 234.189903,43.9760384 235.786288,42.9838211 L264.521215,25.0774543 L264.764474,24.9342034 C266.464243,24.0454034 269.93372,23.7338455 272.731194,24.2486454 Z M309.034146,24.2486454 C311.97048,24.7876454 313.052981,26.0293773 311.456597,27.0215742 L282.72167,44.9279409 L282.477397,45.0711918 C280.778641,45.9599616 277.319301,46.2715323 274.520813,45.7567499 C271.584478,45.2177171 270.491841,43.9760384 272.088226,42.9838211 L300.823153,25.0774543 L301.066412,24.9342034 C302.766182,24.0454034 306.235658,23.7338455 309.034146,24.2486454 Z M345.334056,24.2486454 C348.27039,24.7876454 349.352891,26.0293773 347.756507,27.0215742 L319.02158,44.9279409 L318.778321,45.0711918 C317.078551,45.9599616 313.619211,46.2715323 310.821736,45.7567499 C307.884388,45.2177171 306.791751,43.9760384 308.38915,42.9838211 L337.124077,25.0774543 L337.367335,24.9342034 C339.066092,24.0454034 342.535568,23.7338455 345.334056,24.2486454 Z M381.634033,24.2486454 C384.571381,24.7876454 385.653882,26.0293773 384.056484,27.0215742 L355.321557,44.9279409 L355.078298,45.0711918 C353.379542,45.9599616 349.920202,46.2715323 347.121714,45.7567499 C344.185379,45.2177171 343.092742,43.9760384 344.689127,42.9838211 L373.424054,25.0774543 L373.667313,24.9342034 C375.367083,24.0454034 378.836559,23.7338455 381.634033,24.2486454 Z M417.935318,24.2486454 C420.872666,24.7876454 421.955167,26.0293773 420.357768,27.0215742 L391.622841,44.9279409 L391.379583,45.0711918 C389.680826,45.9599616 386.221486,46.2715323 383.422998,45.7567499 C380.486663,45.2177171 379.394027,43.9760384 380.990411,42.9838211 L409.725338,25.0774543 L409.968597,24.9342034 C411.668367,24.0454034 415.137843,23.7338455 417.935318,24.2486454 Z M454.237585,24.2486454 C457.174933,24.7876454 458.257434,26.0293773 456.660035,27.0215742 L427.926122,44.9279409 L427.68185,45.0711918 C425.983093,45.9599616 422.523753,46.2715323 419.726278,45.7567499 C416.78893,45.2177171 415.696294,43.9760384 417.292678,42.9838211 L446.027605,25.0774543 L446.270864,24.9342034 C447.970634,24.0454034 451.44011,23.7338455 454.237585,24.2486454 Z M492.961555,27.0215742 C494.558953,26.0293773 493.475439,24.7876454 490.539104,24.2486454 C487.74163,23.7338455 484.27114,24.0454034 482.572384,24.9342034 L482.329125,25.0774543 L453.594198,42.9838211 C451.997813,43.9760384 453.09045,45.2177171 456.026785,45.7567499 C458.824259,46.2715323 462.284613,45.9599616 463.983369,45.0711918 L464.226628,44.9279409 L492.961555,27.0215742 Z M529.261826,27.0215742 C530.859224,26.0293773 529.77571,24.7876454 526.839375,24.2486454 C524.041901,23.7338455 520.571411,24.0454034 518.872655,24.9342034 L518.629396,25.0774543 L489.894469,42.9838211 C488.298084,43.9760384 489.390721,45.2177171 492.327055,45.7567499 C495.12453,46.2715323 498.584884,45.9599616 500.28364,45.0711918 L500.526899,44.9279409 L529.261826,27.0215742 Z" id="形状结" fill="url(#linearGradient-3)" transform="translate(274.000000, 35.000000) scale(-1, 1) rotate(-360.000000) translate(-274.000000, -35.000000) "></path>
            </g>
        </g>
    </g>
</svg>